<svg width="50" height="42" viewBox="0 0 50 42" fill="none" xmlns="http://www.w3.org/2000/svg">
<path d="M4.74196 30.8L13.4821 39.6101C14.0245 40.1568 14.0245 41.0432 13.4821 41.59C12.9397 42.1367 12.0603 42.1367 11.5179 41.59L0.406796 30.3899C-0.135598 29.8432 -0.135598 28.9568 0.406796 28.41L11.5179 17.21C12.0603 16.6633 12.9397 16.6633 13.4821 17.21C14.0245 17.7568 14.0245 18.6432 13.4821 19.19L4.74196 28H43.0556C45.3567 28 47.2222 26.1196 47.2222 23.8V7C47.2222 4.6804 45.3567 2.8 43.0556 2.8H1.38889C0.621827 2.8 0 2.1732 0 1.4C0 0.626801 0.621827 0 1.38889 0H43.0556C46.8909 0 50 3.13401 50 7V23.8C50 27.666 46.8909 30.8 43.0556 30.8H4.74196Z" fill="white"/>
</svg>
